<svg width="136" height="136" fill="none" xmlns="http://www.w3.org/2000/svg"><g filter="url(#filter0_d)"><circle cx="68" cy="64" r="54" fill="#1AB0CE"/></g><path d="M25.269 71v-9.46h7.642V71h-1.976v-7.813h-3.698V71H25.27zm11.115-3.124c.032.638.187 1.096.465 1.374s.715.417 1.312.417c.346 0 .65-.043.91-.13.264-.087.494-.253.69-.499l1.312.937c-.287.414-.66.724-1.12.93-.457.204-1.08.307-1.874.307-1.18 0-2.062-.31-2.645-.93-.58-.62-.869-1.556-.869-2.81 0-2.565 1.149-3.848 3.446-3.848 1.02 0 1.798.29 2.33.868.539.574.807 1.413.807 2.516v.868h-4.764zm3.014-1.217c0-1.089-.476-1.634-1.428-1.634-.315 0-.572.055-.773.164a1.2 1.2 0 0 0-.485.479c-.119.21-.212.54-.28.991h2.966zm10.042.704c0 .77-.116 1.45-.348 2.037-.233.588-.565 1.037-.998 1.347-.433.31-.95.465-1.552.465-.793 0-1.47-.249-2.03-.745V73.7h-1.764v-9.87h1.627v.703a4.176 4.176 0 0 1 1.032-.663 3.02 3.02 0 0 1 1.251-.246c.907 0 1.597.319 2.072.957.474.638.71 1.566.71 2.782zm-1.818.028c0-.698-.12-1.24-.362-1.627-.242-.392-.602-.588-1.08-.588-.287 0-.584.068-.889.205-.3.132-.56.296-.78.492v3.138c.188.168.418.319.691.45.278.129.563.192.855.192.483 0 .863-.205 1.141-.615.283-.415.424-.964.424-1.647zm4.908.485c.032.638.187 1.096.465 1.374s.716.417 1.313.417c.346 0 .649-.043.909-.13.264-.087.494-.253.69-.499l1.313.937a2.665 2.665 0 0 1-1.121.93c-.456.204-1.08.307-1.873.307-1.18 0-2.063-.31-2.646-.93-.579-.62-.868-1.556-.868-2.81 0-2.565 1.148-3.848 3.445-3.848 1.021 0 1.798.29 2.331.868.538.574.807 1.413.807 2.516v.868H52.53zm3.015-1.217c0-1.089-.476-1.634-1.429-1.634-.314 0-.572.055-.772.164-.2.105-.363.265-.486.479-.118.21-.211.54-.28.991h2.967zm3.972.055h1.524c.438 0 .752-.046.943-.137.192-.096.288-.305.288-.629 0-.328-.103-.556-.308-.683-.205-.133-.504-.199-.896-.199-.373 0-.676.06-.909.178a1.608 1.608 0 0 0-.588.492l-1.25-.882a2.28 2.28 0 0 1 1.1-.93c.483-.2 1.032-.3 1.647-.3 1.044 0 1.807.212 2.29.636.488.424.732.982.732 1.675 0 .323-.08.615-.24.875-.154.255-.391.453-.71.594.314.114.574.322.779.622.21.301.314.616.314.944 0 .72-.269 1.273-.806 1.66-.538.388-1.347.582-2.427.582-1.303 0-2.228-.413-2.775-1.237l1.333-.937c.205.264.421.451.649.56.228.106.492.158.793.158.41 0 .747-.073 1.012-.219.264-.146.396-.358.396-.636 0-.319-.09-.551-.273-.697-.178-.15-.52-.225-1.026-.225h-1.592v-1.265zm12.53 2.146c0 .68-.264 1.206-.793 1.58-.529.373-1.338.56-2.427.56H65.69v-7.17h2.913c1.043 0 1.795.131 2.255.396.465.26.698.697.698 1.312 0 .41-.119.743-.356.998-.237.25-.51.442-.82.574.487.1.886.29 1.196.568.315.273.472.667.472 1.182zm-2.256-3.042c0-.287-.116-.48-.349-.58-.232-.106-.578-.158-1.039-.158h-.964v1.538h1.04c.492 0 .834-.061 1.025-.184.191-.128.287-.333.287-.616zm.438 2.954c0-.351-.128-.59-.383-.718-.25-.128-.638-.192-1.162-.192h-1.245v1.88h1.026c.528 0 .955-.064 1.278-.191.324-.128.486-.388.486-.78zm9.891-1.34c0 1.194-.276 2.123-.827 2.789-.552.66-1.42.99-2.605.99-2.296 0-3.445-1.26-3.445-3.78 0-1.212.276-2.148.827-2.809.552-.665 1.425-.998 2.619-.998 1.184 0 2.053.333 2.604.998.551.66.827 1.597.827 2.81zm-1.825 0c0-.789-.123-1.363-.37-1.723-.245-.365-.658-.547-1.236-.547-.575 0-.99.187-1.245.56-.255.37-.383.94-.383 1.71 0 .765.126 1.33.376 1.695.256.36.673.54 1.252.54.57 0 .98-.178 1.23-.533.25-.36.376-.928.376-1.702zM88.07 71h-1.763v-3.022h-2.899V71h-1.764v-7.17h1.764v2.83h2.899v-2.83h1.763V71zm3.46 0h-1.67v-7.17h1.6v4.846l3.315-4.847h1.682V71h-1.6v-4.833L91.53 71zm12.509-5.893h-2.434V71h-1.75v-5.893h-2.454V63.83h6.638v1.278zm2.345 2.769c.032.638.187 1.096.465 1.374s.715.417 1.312.417c.346 0 .65-.043.909-.13a1.46 1.46 0 0 0 .691-.499l1.312.937a2.652 2.652 0 0 1-1.121.93c-.456.204-1.08.307-1.873.307-1.18 0-2.062-.31-2.645-.93-.579-.62-.869-1.556-.869-2.81 0-2.565 1.149-3.848 3.446-3.848 1.021 0 1.798.29 2.331.868.538.574.806 1.413.806 2.516v.868h-4.764zm3.014-1.217c0-1.089-.476-1.634-1.428-1.634-.315 0-.572.055-.773.164a1.2 1.2 0 0 0-.485.479c-.119.21-.212.54-.28.991h2.966zM37.013 90h-1.559v-5.113l-1.79 3.322h-.965l-1.866-3.322V90h-1.552v-7.17h1.962l1.976 3.403 1.873-3.404h1.92V90zm8.223 0h-1.763v-3.022h-2.899V90H38.81v-7.17h1.764v2.83h2.899v-2.83h1.763V90zm3.343-3.124c.032.638.187 1.096.465 1.374s.715.417 1.312.417c.347 0 .65-.043.91-.13a1.46 1.46 0 0 0 .69-.499l1.313.937a2.67 2.67 0 0 1-1.121.93c-.456.204-1.08.307-1.874.307-1.18 0-2.062-.31-2.645-.93-.579-.62-.868-1.556-.868-2.81 0-2.565 1.148-3.848 3.445-3.848 1.02 0 1.798.29 2.331.868.538.574.807 1.413.807 2.516v.868h-4.765zm3.015-1.217c0-1.089-.477-1.634-1.429-1.634-.314 0-.572.055-.772.164-.2.105-.363.265-.486.479-.118.21-.212.54-.28.991h2.967zm12.64 3.316a2.622 2.622 0 0 1-1.08.922c-.447.21-1.012.315-1.696.315-1.157 0-2.032-.315-2.625-.943-.592-.634-.889-1.57-.889-2.81 0-1.208.287-2.149.862-2.823.574-.675 1.435-1.012 2.584-1.012.615 0 1.162.1 1.64.3.483.201.85.511 1.1.93l-1.312.937a1.484 1.484 0 0 0-.56-.472c-.214-.105-.49-.157-.827-.157-.602 0-1.03.185-1.285.554-.256.369-.383.94-.383 1.716 0 .774.13 1.342.39 1.702.264.355.713.533 1.346.533.273 0 .524-.039.752-.116.228-.078.444-.249.65-.513l1.332.937zm2.775-2.099c.032.638.187 1.096.465 1.374s.715.417 1.312.417c.346 0 .65-.043.91-.13.264-.087.494-.253.69-.499l1.312.937c-.287.414-.66.724-1.12.93-.457.204-1.08.307-1.874.307-1.18 0-2.062-.31-2.645-.93-.58-.62-.869-1.556-.869-2.81 0-2.565 1.149-3.848 3.446-3.848 1.02 0 1.798.29 2.33.868.539.574.807 1.413.807 2.516v.868H67.01zm3.014-1.217c0-1.089-.476-1.634-1.428-1.634-.315 0-.572.055-.773.164a1.2 1.2 0 0 0-.485.479c-.119.21-.212.54-.28.991h2.966zM74.945 90h-1.668v-7.17h1.6v4.846l3.315-4.847h1.682V90h-1.6v-4.833L74.945 90zm4.116-10.022c0 .351-.105.673-.315.964-.205.288-.497.515-.875.684-.374.169-.804.253-1.292.253-.47 0-.89-.082-1.264-.246a2.052 2.052 0 0 1-.876-.69 1.66 1.66 0 0 1-.307-.965h1.51c0 .68.317 1.02.95 1.02.265 0 .49-.074.677-.22.187-.15.28-.417.28-.8h1.511zm2.262 2.851h1.75v1.921c0 .428.032.743.096.943.064.2.169.344.314.431.15.082.401.123.752.123.47 0 1.035-.046 1.696-.137v-3.28h1.75V90h-1.75v-2.686c-.338.054-.684.109-1.04.164-.35.05-.667.075-.95.075-.966 0-1.645-.18-2.037-.54-.387-.36-.58-.985-.58-1.873v-2.31zM93.806 90v-.745c-.698.638-1.445.957-2.242.957-.793 0-1.393-.207-1.798-.622-.406-.42-.609-.955-.609-1.607 0-.51.103-.932.308-1.264.21-.333.517-.593.923-.78.41-.191.998-.325 1.763-.403l1.511-.143v-.322c0-.4-.12-.674-.362-.82-.242-.15-.595-.226-1.06-.226-.383 0-.713.064-.991.192-.273.127-.476.31-.608.547l-1.374-.882c.241-.406.62-.716 1.134-.93.515-.219 1.137-.328 1.867-.328 1.116 0 1.92.196 2.413.588.496.387.745 1.025.745 1.914V90h-1.62zm-.144-3.33l-.895.083c-.634.055-1.092.175-1.374.362-.278.187-.417.467-.417.841 0 .328.09.554.273.677.182.118.424.178.725.178.214 0 .474-.067.779-.199.31-.136.613-.328.91-.574v-1.367zm9.632 2.305a2.623 2.623 0 0 1-1.08.922c-.447.21-1.012.315-1.695.315-1.158 0-2.033-.315-2.625-.943-.593-.634-.89-1.57-.89-2.81 0-1.208.288-2.149.862-2.823.574-.675 1.436-1.012 2.584-1.012.615 0 1.162.1 1.641.3.483.201.85.511 1.1.93l-1.312.937a1.482 1.482 0 0 0-.561-.472c-.214-.105-.49-.157-.827-.157-.601 0-1.03.185-1.285.554-.255.369-.383.94-.383 1.716 0 .774.13 1.342.39 1.702.264.355.713.533 1.347.533.273 0 .524-.039.752-.116.227-.078.444-.249.649-.513l1.333.937zm3.069-1.983h-1.469l-.233-6.453h1.914l-.212 6.453zm.369 2.058c0 .392-.088.665-.266.82-.178.15-.463.226-.855.226-.428 0-.72-.085-.875-.253-.155-.173-.232-.438-.232-.793 0-.374.082-.643.246-.807.164-.164.451-.246.861-.246.42 0 .711.08.875.24.164.159.246.43.246.813z" fill="#fff"/><path clip-rule="evenodd" d="M79 49.22v3.462a2.316 2.316 0 0 1-2.521 2.308 22.916 22.916 0 0 1-9.98-3.543 22.53 22.53 0 0 1-6.94-6.924 22.812 22.812 0 0 1-3.55-10.007 2.305 2.305 0 0 1 .596-1.764A2.315 2.315 0 0 1 58.31 32h3.469a2.312 2.312 0 0 1 2.313 1.985c.146 1.108.418 2.196.81 3.243a2.305 2.305 0 0 1-.521 2.436l-1.469 1.465a18.485 18.485 0 0 0 6.939 6.925l1.469-1.465a2.316 2.316 0 0 1 2.44-.52c1.049.39 2.139.662 3.25.808a2.31 2.31 0 0 1 1.988 2.343z" stroke="#fff" stroke-width="2" stroke-linecap="round" stroke-linejoin="round"/><defs><filter id="filter0_d" x="0" y="0" width="136" height="136" filterUnits="userSpaceOnUse" color-interpolation-filters="sRGB"><feFlood flood-opacity="0" result="BackgroundImageFix"/><feColorMatrix in="SourceAlpha" values="0 0 0 0 0 0 0 0 0 0 0 0 0 0 0 0 0 0 127 0"/><feOffset dy="4"/><feGaussianBlur stdDeviation="7"/><feColorMatrix values="0 0 0 0 0 0 0 0 0 0 0 0 0 0 0 0 0 0 0.05 0"/><feBlend in2="BackgroundImageFix" result="effect1_dropShadow"/><feBlend in="SourceGraphic" in2="effect1_dropShadow" result="shape"/></filter></defs></svg>