<svg width="66" height="54" fill="none" xmlns="http://www.w3.org/2000/svg"><path d="M16 52a4 4 0 1 0 0-8 4 4 0 0 0 0 8zm24 0a4 4 0 1 0 0-8 4 4 0 0 0 0 8zM11.34 18H46l-3.36 16.78a4 4 0 0 1-4 3.22H17.5a4 4 0 0 1-4-3.48l-3.04-23.04A4 4 0 0 0 6.5 8H2" stroke="#1AB0CE" stroke-width="4" stroke-linecap="round" stroke-linejoin="round"/><circle cx="51" cy="15" r="15" fill="#1AB0CE"/><path d="M54.597 17.34c0 .971-.32 1.692-.957 2.161-.634.465-1.507.697-2.618.697-.794 0-1.466-.143-2.017-.43-.547-.292-.937-.659-1.17-1.101l1.553-1.06c.168.26.378.47.629.63.25.159.592.239 1.025.239.547 0 .943-.105 1.19-.315.25-.21.375-.53.375-.964 0-.875-.578-1.312-1.736-1.312h-.84V14.23h.73c.58 0 1.001-.114 1.265-.341.265-.228.397-.524.397-.889a.876.876 0 0 0-.287-.67c-.192-.178-.506-.267-.944-.267-.437 0-.788.071-1.052.212a1.83 1.83 0 0 0-.67.63l-1.538-1.08c.373-.507.825-.88 1.353-1.122.533-.241 1.217-.362 2.05-.362.634 0 1.186.1 1.655.3.474.197.832.47 1.073.82.242.352.363.753.363 1.204 0 1.235-.638 2.01-1.914 2.324.624.041 1.128.278 1.51.711.383.429.575.976.575 1.64z" fill="#fff"/></svg>