<svg width="66" height="54" viewBox="0 0 66 54" fill="none" xmlns="http://www.w3.org/2000/svg">
<path d="M16 52C18.2091 52 20 50.2091 20 48C20 45.7909 18.2091 44 16 44C13.7909 44 12 45.7909 12 48C12 50.2091 13.7909 52 16 52Z" stroke="#1AB0CE" stroke-width="4" stroke-linecap="round" stroke-linejoin="round"/>
<path d="M40 52C42.2091 52 44 50.2091 44 48C44 45.7909 42.2091 44 40 44C37.7909 44 36 45.7909 36 48C36 50.2091 37.7909 52 40 52Z" stroke="#1AB0CE" stroke-width="4" stroke-linecap="round" stroke-linejoin="round"/>
<path d="M11.34 18H46L42.64 34.78C42.2625 36.6805 40.5772 38.0371 38.64 38H17.5C15.479 38.0171 13.7627 36.524 13.5 34.52L10.46 11.48C10.1992 9.49119 8.50583 8.00304 6.5 8H2" stroke="#1AB0CE" stroke-width="4" stroke-linecap="round" stroke-linejoin="round"/>
<circle cx="51" cy="15" r="15" fill="#1AB0CE"/>
<path d="M54.5967 17.3408C54.5967 18.3115 54.2777 19.0316 53.6396 19.501C53.0062 19.9658 52.1335 20.1982 51.0215 20.1982C50.2285 20.1982 49.5563 20.0547 49.0049 19.7676C48.458 19.4759 48.0684 19.109 47.8359 18.667L49.3877 17.6074C49.5563 17.8672 49.766 18.0768 50.0166 18.2363C50.2673 18.3958 50.609 18.4756 51.042 18.4756C51.5889 18.4756 51.9854 18.3708 52.2314 18.1611C52.4821 17.9515 52.6074 17.6302 52.6074 17.1973C52.6074 16.3223 52.0286 15.8848 50.8711 15.8848H50.0303V14.2305H50.7617C51.3405 14.2305 51.762 14.1165 52.0264 13.8887C52.2907 13.6608 52.4229 13.3646 52.4229 13C52.4229 12.7311 52.3271 12.5078 52.1357 12.3301C51.9443 12.1523 51.6299 12.0635 51.1924 12.0635C50.7549 12.0635 50.404 12.1341 50.1396 12.2754C49.8799 12.4121 49.6566 12.6217 49.4697 12.9043L47.9316 11.8242C48.3053 11.3184 48.7565 10.9447 49.2852 10.7031C49.8184 10.4616 50.502 10.3408 51.3359 10.3408C51.9694 10.3408 52.5208 10.4411 52.9902 10.6416C53.4642 10.8376 53.8219 11.111 54.0635 11.4619C54.305 11.8128 54.4258 12.2139 54.4258 12.665C54.4258 13.9001 53.7878 14.6748 52.5117 14.9893C53.1361 15.0303 53.6396 15.2673 54.0225 15.7002C54.4053 16.1286 54.5967 16.6755 54.5967 17.3408Z" fill="white"/>
</svg>
